HIERARCHY
ROOT Hips
{
	OFFSET 0.00000 0.00000 0.00000
	CHANNELS 6 Xposition Yposition Zposition Zrotation Yrotation Xrotation 
	JOINT LHipJoint
	{
		OFFSET 0 0 0
		CHANNELS 3 Zrotation Yrotation Xrotation
		JOINT LeftUpLeg
		{
			OFFSET 1.28858 -1.83292 1.03970
			CHANNELS 3 Zrotation Yrotation Xrotation
			JOINT LeftLeg
			{
				OFFSET 2.47846 -6.80952 0.00000
				CHANNELS 3 Zrotation Yrotation Xrotation
				JOINT LeftFoot
				{
					OFFSET 2.75274 -7.56311 0.00000
					CHANNELS 3 Zrotation Yrotation Xrotation
					JOINT LeftToeBase
					{
						OFFSET 0.12848 -0.35301 1.68223
						CHANNELS 3 Zrotation Yrotation Xrotation
						End Site
						{
							OFFSET 0.00000 -0.00000 0.87311
						}
					}
				}
			}
		}
	}
	JOINT RHipJoint
	{
		OFFSET 0 0 0
		CHANNELS 3 Zrotation Yrotation Xrotation
		JOINT RightUpLeg
		{
			OFFSET -1.31183 -1.83292 1.03970
			CHANNELS 3 Zrotation Yrotation Xrotation
			JOINT RightLeg
			{
				OFFSET -2.44740 -6.72417 0.00000
				CHANNELS 3 Zrotation Yrotation Xrotation
				JOINT RightFoot
				{
					OFFSET -2.67343 -7.34519 0.00000
					CHANNELS 3 Zrotation Yrotation Xrotation
					JOINT RightToeBase
					{
						OFFSET -0.16914 -0.46471 1.77626
						CHANNELS 3 Zrotation Yrotation Xrotation
						End Site
						{
							OFFSET -0.00000 -0.00000 0.92777
						}
					}
				}
			}
		}
	}
	JOINT LowerBack
	{
		OFFSET 0 0 0
		CHANNELS 3 Zrotation Yrotation Xrotation
		JOINT Spine
		{
			OFFSET 0.01249 2.14252 0.03842
			CHANNELS 3 Zrotation Yrotation Xrotation
			JOINT Spine1
			{
				OFFSET -0.02957 2.14199 -0.03751
				CHANNELS 3 Zrotation Yrotation Xrotation
				JOINT Neck
				{
					OFFSET 0 0 0
					CHANNELS 3 Zrotation Yrotation Xrotation
					JOINT Neck1
					{
						OFFSET -0.01678 1.65709 -0.05476
						CHANNELS 3 Zrotation Yrotation Xrotation
						JOINT Head
						{
							OFFSET 0.07912 1.58331 -0.11843
							CHANNELS 3 Zrotation Yrotation Xrotation
							End Site
							{
								OFFSET 0.03298 1.73940 -0.04271
							}
						}
					}
				}
				JOINT LeftShoulder
				{
					OFFSET 0 0 0
					CHANNELS 3 Zrotation Yrotation Xrotation
					JOINT LeftArm
					{
						OFFSET 3.39556 1.16496 0.08673
						CHANNELS 3 Zrotation Yrotation Xrotation
						JOINT LeftForeArm
						{
							OFFSET 5.23910 -0.00000 -0.00000
							CHANNELS 3 Zrotation Yrotation Xrotation
							JOINT LeftHand
							{
								OFFSET 3.31467 -0.00000 0.00000
								CHANNELS 3 Zrotation Yrotation Xrotation
								JOINT LeftFingerBase
								{
									OFFSET 0 0 0
									CHANNELS 3 Zrotation Yrotation Xrotation
									JOINT LeftHandIndex1
									{
										OFFSET 0.96590 -0.00000 0.00000
										CHANNELS 3 Zrotation Yrotation Xrotation
										End Site
										{
											OFFSET 0.77873 -0.00000 0.00000
										}
									}
								}
								JOINT LThumb
								{
									OFFSET 0 0 0
									CHANNELS 3 Zrotation Yrotation Xrotation
									End Site
									{
										OFFSET 0.79062 -0.00000 0.79062
									}
								}
							}
						}
					}
				}
				JOINT RightShoulder
				{
					OFFSET 0 0 0
					CHANNELS 3 Zrotation Yrotation Xrotation
					JOINT RightArm
					{
						OFFSET -3.27193 1.31331 0.33940
						CHANNELS 3 Zrotation Yrotation Xrotation
						JOINT RightForeArm
						{
							OFFSET -5.30252 -0.00000 0.00000
							CHANNELS 3 Zrotation Yrotation Xrotation
							JOINT RightHand
							{
								OFFSET -3.67875 -0.00000 0.00000
								CHANNELS 3 Zrotation Yrotation Xrotation
								JOINT RightFingerBase
								{
									OFFSET 0 0 0
									CHANNELS 3 Zrotation Yrotation Xrotation
									JOINT RightHandIndex1
									{
										OFFSET -0.59481 -0.00000 0.00000
										CHANNELS 3 Zrotation Yrotation Xrotation
										End Site
										{
											OFFSET -0.47955 -0.00000 0.00000
										}
									}
								}
								JOINT RThumb
								{
									OFFSET 0 0 0
									CHANNELS 3 Zrotation Yrotation Xrotation
									End Site
									{
										OFFSET -0.48687 -0.00000 0.48687
									}
								}
							}
						}
					}
				}
			}
		}
	}
}
MOTION
Frames: 16
Frame Time: .0083333
8.2890 18.2384 -31.6356 -1.3586 25.8296 2.7050 0.0000 0.0000 0.0000 -15.2461 0.6782 4.6053 0.0177 0.8588 2.3604 1.2043 -4.0874 -19.7926 2.5700 9.9641 28.8604 0.0000 0.0000 0.0000 14.9210 5.3871 1.5735 -0.0000 -0.0369 0.1015 -0.7834 -22.8053 -36.6667 -1.4083 -7.5062 21.2239 0.4765 1.0914 -3.4982 -0.7025 1.4539 -3.2236 -0.9537 0.7178 -1.3159 -0.7523 -4.8598 -0.3427 4.5322 -6.7182 5.9920 1.4236 -3.2572 2.1428 0.0000 0.0000 0.0000 -81.4842 2.0139 44.5956 10.0905 -16.8810 -1.5011 -0.0000 0.0000 -11.3022 12.3151 -11.7656 -2.5489 -7.1250 0.0000 -0.0000 -10.3703 18.0580 6.7567 0.0000 0.0000 0.0000 85.7697 -10.4193 26.6108 -13.2979 21.7222 -2.5625 0.0000 0.0000 2.6783 -8.2300 -40.8614 5.4056 7.1250 -0.0000 -0.0000 38.1987 -67.4148 -21.8480
8.2871 18.2389 -31.6334 -1.3689 25.8557 2.6794 0.0000 0.0000 0.0000 -15.1881 0.7895 4.5860 0.0178 0.8620 2.3692 1.1882 -4.2015 -19.6404 2.5883 9.9967 28.9661 0.0000 0.0000 0.0000 14.9468 5.3838 1.6160 -0.0000 -0.0379 0.1041 -0.8315 -22.6875 -36.7851 -1.4515 -7.6155 21.5521 0.4115 1.0702 -3.5531 -0.6470 1.4272 -3.1645 -0.8592 0.7065 -1.2279 -0.8873 -4.7840 -0.4554 4.6902 -6.6309 6.1735 1.4957 -3.2083 2.2326 -0.0000 -0.0000 0.0000 -81.5626 1.9232 44.5436 10.0999 -16.8956 -1.5038 -0.0000 0.0000 -11.2948 12.3073 -11.7366 -2.5410 -7.1250 0.0000 -0.0000 -10.3765 18.0876 6.7540 -0.0000 -0.0000 0.0000 85.6715 -10.3576 26.7240 -13.3149 21.7468 -2.5688 0.0000 0.0000 2.6334 -8.3753 -40.7307 5.4873 7.1250 -0.0000 -0.0000 37.8380 -67.3599 -21.5722
8.2860 18.2383 -31.6320 -1.3697 25.8816 2.6750 0.0000 0.0000 0.0000 -15.1553 0.8391 4.5634 0.0180 0.8667 2.3822 1.1817 -4.3041 -19.5716 2.6721 10.1444 29.4455 0.0000 0.0000 0.0000 14.9446 5.3421 1.6023 -0.0001 -0.0463 0.1271 -0.8515 -22.6211 -36.8145 -1.4936 -7.7204 21.8680 0.4282 1.0440 -3.6328 -0.6514 1.3916 -3.1139 -0.8716 0.6888 -1.1316 -0.7322 -4.8858 -0.1679 4.4081 -6.7317 5.6488 1.3870 -3.2745 1.9935 -0.0000 0.0000 0.0000 -81.5595 1.8457 44.4436 10.1033 -16.9010 -1.5048 -0.0000 0.0000 -11.2927 12.2238 -11.7305 -2.5220 -7.1250 0.0000 -0.0000 -10.4348 18.0985 6.7906 -0.0000 0.0000 0.0000 85.6505 -10.3143 26.8491 -13.3352 21.7764 -2.5763 0.0000 0.0000 2.6194 -8.4342 -40.5724 5.5086 7.1250 -0.0000 -0.0000 37.5233 -67.2574 -21.2875
8.2860 18.2374 -31.6318 -1.3180 25.8948 2.7021 0.0000 0.0000 0.0000 -15.2232 0.7668 4.5694 0.0183 0.8733 2.4002 1.1923 -4.2682 -19.6665 2.7039 10.1995 29.6253 0.0000 0.0000 0.0000 14.8834 5.3331 1.5940 -0.0001 -0.0484 0.1329 -0.8692 -22.5721 -36.8517 -1.5494 -7.8566 22.2795 0.2064 1.0206 -3.7580 -0.5211 1.3663 -3.0196 -0.6109 0.6815 -0.9734 -0.9830 -4.7673 -0.4357 4.5984 -6.5927 5.9632 1.4854 -3.1976 2.1584 0.0000 0.0000 0.0000 -81.7773 1.6768 44.4105 10.0876 -16.8764 -1.5003 -0.0000 0.0000 -11.3211 12.1867 -11.7131 -2.5104 -7.1250 0.0000 -0.0000 -10.4610 18.1180 6.8037 0.0000 0.0000 0.0000 85.3917 -10.1742 27.0216 -13.3249 21.7614 -2.5725 0.0000 0.0000 2.5126 -8.6443 -40.3307 5.6193 7.1250 -0.0000 -0.0000 36.9236 -67.1356 -20.8098
8.2838 18.2376 -31.6305 -1.2786 25.9090 2.7078 0.0000 0.0000 0.0000 -15.2591 0.7245 4.5663 0.0187 0.8839 2.4295 1.1917 -4.3367 -19.6531 2.7765 10.3242 30.0330 0.0000 0.0000 0.0000 14.8633 5.3620 1.6365 -0.0000 -0.0371 0.1019 -0.8516 -22.6525 -36.8508 -1.5272 -7.8027 22.1165 0.3569 1.0257 -3.4725 -0.6913 1.3689 -3.1893 -0.8774 0.6776 -1.2997 -0.6894 -4.8852 -0.2634 4.3319 -6.7340 5.7873 1.3519 -3.2729 2.0505 0.0000 0.0000 0.0000 -81.4444 1.9409 44.6906 10.1376 -16.9545 -1.5148 -0.0000 0.0000 -11.5351 12.2191 -11.6227 -2.4982 -7.1250 0.0000 -0.0000 -10.4412 18.2069 6.7695 0.0000 0.0000 0.0000 85.6361 -10.3441 27.0996 -13.2588 21.6652 -2.5480 0.0000 0.0000 2.4931 -8.8141 -40.1527 5.7099 7.1250 -0.0000 -0.0000 36.4698 -67.0492 -20.4562
8.2804 18.2383 -31.6290 -1.3066 25.9168 2.6736 0.0000 0.0000 0.0000 -15.1953 0.7180 4.5491 0.0195 0.9025 2.4805 1.1906 -4.4952 -19.6253 2.8343 10.4219 30.3542 0.0000 0.0000 0.0000 14.9417 5.5155 1.7694 -0.0000 -0.0122 0.0336 -0.8525 -22.7390 -36.9533 -1.4937 -7.7206 21.8685 0.2155 1.0132 -3.5675 -0.5753 1.3560 -3.1011 -0.6766 0.6752 -1.1620 -0.8445 -4.8155 -0.5440 4.4477 -6.6617 6.1902 1.4074 -3.2272 2.2422 -0.0000 0.0000 0.0000 -81.6121 1.7850 44.5956 10.0973 -16.8917 -1.5031 -0.0000 0.0000 -11.4938 12.1451 -11.7623 -2.5119 -7.1250 0.0000 -0.0000 -10.4885 18.0711 6.8333 -0.0000 0.0000 0.0000 85.4337 -10.1826 27.2682 -13.2229 21.6130 -2.5348 0.0000 0.0000 2.3915 -8.7106 -40.1096 5.6372 7.1250 -0.0000 -0.0000 36.5099 -66.9847 -20.4289
8.2781 18.2386 -31.6272 -1.3039 25.9315 2.6665 0.0000 0.0000 0.0000 -15.1559 0.7801 4.4867 0.0209 0.9324 2.5628 1.1832 -4.5677 -19.5542 2.7296 10.2439 29.7701 0.0000 0.0000 0.0000 14.9768 5.6582 1.8970 -0.0000 0.0114 -0.0312 -0.8891 -22.7510 -37.1577 -1.5195 -7.7838 22.0594 0.1611 1.0133 -3.5974 -0.5601 1.3575 -3.0672 -0.6295 0.6771 -1.1121 -0.4862 -5.0058 -0.2112 3.8789 -6.8656 5.5277 1.1743 -3.3492 1.9316 -0.0000 -0.0000 0.0000 -81.6264 1.6944 44.5962 10.0850 -16.8724 -1.4995 -0.0000 0.0000 -11.5469 12.0292 -11.8779 -2.5114 -7.1250 0.0000 -0.0000 -10.5656 17.9619 6.9111 -0.0000 -0.0000 0.0000 85.4290 -10.1346 27.2598 -13.2311 21.6249 -2.5378 0.0000 0.0000 2.4449 -8.6276 -40.1898 5.5922 7.1250 -0.0000 -0.0000 36.7201 -67.0218 -20.5898
8.2781 18.2381 -31.6263 -1.2092 25.9618 2.6970 0.0000 0.0000 0.0000 -15.2504 0.8284 4.4132 0.0228 0.9749 2.6798 1.1784 -4.5635 -19.5130 2.6345 10.0785 29.2312 0.0000 0.0000 0.0000 14.8631 5.5476 1.8795 -0.0000 0.0121 -0.0332 -0.8644 -22.8036 -37.0890 -1.4916 -7.7153 21.8526 0.0750 1.0021 -3.6005 -0.5871 1.3444 -3.0497 -0.6090 0.6718 -1.0938 -0.8904 -4.8439 -0.5999 4.4847 -6.7058 6.3061 1.4238 -3.2467 2.2954 -0.0000 0.0000 0.0000 -81.6038 1.6603 44.6437 10.1018 -16.8986 -1.5044 -0.0000 0.0000 -11.6166 12.0856 -11.7073 -2.4878 -7.1250 0.0000 -0.0000 -10.5315 18.1297 6.8484 -0.0000 0.0000 0.0000 85.4301 -10.1110 27.3113 -13.2461 21.6468 -2.5434 0.0000 0.0000 2.4628 -8.6875 -40.2752 5.6412 7.1250 -0.0000 -0.0000 36.7919 -67.1058 -20.7031
8.2792 18.2373 -31.6262 -1.1140 25.9945 2.7289 0.0000 0.0000 0.0000 -15.3587 0.8656 4.3226 0.0254 1.0291 2.8288 1.1776 -4.6356 -19.4990 2.5855 9.9916 28.9497 0.0000 0.0000 0.0000 14.7222 5.3574 1.8002 -0.0000 0.0000 -0.0001 -0.8409 -22.7501 -36.9054 -1.4694 -7.6603 21.6868 -0.0119 0.9671 -3.6027 -0.5841 1.2999 -3.0364 -0.5582 0.6510 -1.0814 -0.5819 -5.0397 -0.2327 3.8998 -6.9138 5.6144 1.1946 -3.3731 1.9697 0.0000 -0.0000 0.0000 -81.6837 1.6256 44.4219 10.0642 -16.8400 -1.4935 -0.0000 0.0000 -11.5268 12.2389 -11.5595 -2.4889 -7.1250 0.0000 -0.0000 -10.4293 18.2693 6.7469 0.0000 -0.0000 0.0000 85.3635 -10.1085 27.3999 -13.2719 21.6844 -2.5529 0.0000 0.0000 2.4864 -8.6441 -40.2221 5.6067 7.1250 -0.0000 -0.0000 36.7536 -67.0518 -20.6352
8.2779 18.2372 -31.6250 -1.1318 26.0048 2.7162 0.0000 0.0000 0.0000 -15.3046 0.9475 4.2093 0.0283 1.0852 2.9832 1.1701 -4.7602 -19.4219 2.4405 9.7289 28.1034 0.0000 0.0000 0.0000 14.7469 5.3685 1.8103 -0.0000 -0.0035 0.0095 -0.8755 -22.6483 -36.9710 -1.5007 -7.7377 21.9202 -0.0287 0.9424 -3.6095 -0.5472 1.2677 -3.0157 -0.5115 0.6355 -1.0578 -0.8159 -4.9249 -0.3740 4.1648 -6.7809 5.9009 1.3153 -3.2998 2.1063 -0.0000 -0.0000 0.0000 -81.7737 1.5557 44.1689 10.0098 -16.7548 -1.4778 -0.0000 0.0000 -11.4112 12.4418 -11.5402 -2.5273 -7.1250 0.0000 -0.0000 -10.2886 18.2771 6.6510 -0.0000 -0.0000 0.0000 85.3082 -10.0479 27.4349 -13.2619 21.6698 -2.5492 0.0000 0.0000 2.5698 -8.5123 -40.1282 5.5099 7.1250 -0.0000 -0.0000 36.7432 -66.9397 -20.5373
8.2765 18.2367 -31.6237 -1.1557 26.0041 2.7153 0.0000 0.0000 0.0000 -15.2696 0.8977 4.1059 0.0320 1.1548 3.1749 1.1855 -4.7903 -19.5511 2.2227 9.3152 26.7864 0.0000 0.0000 0.0000 14.7868 5.3888 1.8057 -0.0000 -0.0047 0.0130 -0.8812 -22.6695 -37.0242 -1.4927 -7.7180 21.8607 -0.0205 0.9515 -3.6233 -0.5427 1.2796 -2.9946 -0.5106 0.6414 -1.0282 -0.7783 -4.8958 -0.4143 4.1454 -6.7395 5.8348 1.3033 -3.2793 2.0882 0.0000 -0.0000 0.0000 -81.7358 1.5210 44.3227 10.0466 -16.8124 -1.4884 -0.0000 0.0000 -11.5256 12.6308 -11.4356 -2.5440 -7.1250 0.0000 -0.0000 -10.1600 18.3715 6.5436 0.0000 -0.0000 0.0000 85.3131 -9.9534 27.4218 -13.2302 21.6236 -2.5375 0.0000 0.0000 2.5822 -8.5622 -39.9162 5.5182 7.1250 -0.0000 -0.0000 36.3654 -66.7904 -20.1820
8.2766 18.2347 -31.6226 -1.1393 26.0214 2.7703 0.0000 0.0000 0.0000 -15.3028 0.8024 3.9423 0.0367 1.2368 3.4006 1.2005 -4.9128 -19.6664 2.1224 9.1166 26.1606 0.0000 0.0000 0.0000 14.7540 5.3231 1.7164 -0.0000 -0.0095 0.0262 -0.8388 -22.7738 -36.9218 -1.4544 -7.6229 21.5743 -0.0423 0.9646 -3.6843 -0.5457 1.2978 -2.9878 -0.4999 0.6509 -0.9875 -0.8865 -4.9177 -0.3090 4.2695 -6.7685 5.7258 1.3641 -3.2963 2.0448 0.0000 -0.0000 0.0000 -81.7506 1.4541 44.3502 10.0460 -16.8116 -1.4882 -0.0000 0.0000 -11.4562 12.6740 -11.2591 -2.5141 -7.1250 0.0000 -0.0000 -10.1349 18.5467 6.4870 0.0000 -0.0000 0.0000 85.3323 -9.9123 27.3606 -13.2252 21.6163 -2.5357 0.0000 0.0000 2.5308 -8.7196 -39.6496 5.5895 7.1250 -0.0000 -0.0000 35.7989 -66.6293 -19.7049
8.2774 18.2332 -31.6212 -1.0756 26.0564 2.8116 0.0000 0.0000 0.0000 -15.3681 0.8650 3.7481 0.0423 1.3274 3.6502 1.1993 -5.2027 -19.6317 2.0855 9.0419 25.9263 0.0000 0.0000 0.0000 14.6592 5.2122 1.6674 -0.0000 -0.0113 0.0309 -0.7999 -22.8290 -36.7808 -1.4313 -7.5647 21.3994 -0.1080 0.9594 -3.7087 -0.5537 1.2927 -2.9775 -0.4709 0.6493 -0.9646 -0.9406 -4.9034 -0.2501 4.3201 -6.7478 5.6517 1.3920 -3.2879 2.0140 0.0000 0.0000 0.0000 -81.8398 1.3445 44.0514 9.9645 -16.6841 -1.4647 -0.0000 0.0000 -11.1425 12.6477 -11.2274 -2.5018 -7.1250 0.0000 -0.0000 -10.1540 18.5800 6.4920 0.0000 0.0000 0.0000 85.3205 -9.9072 27.4057 -13.2362 21.6324 -2.5397 0.0000 0.0000 2.4275 -8.6416 -39.6754 5.5420 7.1250 -0.0000 -0.0000 35.9184 -66.6263 -19.7755
8.2794 18.2344 -31.6206 -1.0343 26.0889 2.7819 0.0000 0.0000 0.0000 -15.4238 0.8997 3.6324 0.0489 1.4277 3.9265 1.2143 -5.5597 -19.7323 2.0140 8.8952 25.4679 0.0000 0.0000 0.0000 14.5911 5.0622 1.6889 -0.0000 -0.0075 0.0206 -0.7634 -22.8484 -36.6107 -1.4196 -7.5348 21.3099 -0.1100 0.9590 -3.6602 -0.5791 1.2918 -2.9551 -0.4964 0.6486 -0.9681 -0.9286 -4.8847 -0.2145 4.3265 -6.7207 5.5903 1.3940 -3.2754 1.9866 0.0000 -0.0000 0.0000 -81.8279 1.3225 43.9654 9.9576 -16.6732 -1.4628 -0.0000 0.0000 -11.1289 12.5255 -11.3326 -2.4997 -7.1250 0.0000 -0.0000 -10.2363 18.4810 6.5692 0.0000 -0.0000 0.0000 85.3228 -9.9126 27.4855 -13.2557 21.6607 -2.5469 0.0000 0.0000 2.3577 -8.3144 -39.9607 5.3621 7.1250 -0.0000 -0.0000 36.6889 -66.7511 -20.3496
8.2818 18.2354 -31.6216 -1.0841 26.0835 2.7666 0.0000 0.0000 0.0000 -15.3915 0.8131 3.5068 0.0561 1.5279 4.2025 1.2396 -5.7978 -19.9286 1.8903 8.6337 24.6559 0.0000 0.0000 0.0000 14.6129 4.9521 1.6161 -0.0000 -0.0192 0.0527 -0.7432 -22.7867 -36.4318 -1.4258 -7.5507 21.3575 -0.0204 0.9745 -3.6664 -0.5816 1.3102 -2.9464 -0.5483 0.6563 -0.9535 -0.7839 -4.9559 0.0204 4.1269 -6.7910 5.1508 1.3140 -3.3213 1.7900 -0.0000 0.0000 0.0000 -81.7865 1.3409 44.0121 9.9933 -16.7292 -1.4730 -0.0000 0.0000 -11.2595 12.3610 -11.4342 -2.4877 -7.1250 0.0000 -0.0000 -10.3481 18.3881 6.6649 -0.0000 0.0000 0.0000 85.3509 -9.9258 27.4796 -13.2753 21.6893 -2.5541 0.0000 0.0000 2.4039 -8.1797 -40.1057 5.2904 7.1250 -0.0000 -0.0000 37.0505 -66.8229 -20.6324
8.2819 18.2350 -31.6214 -1.1079 26.0620 2.8093 0.0000 0.0000 0.0000 -15.3596 0.7861 3.3022 0.0638 1.6301 4.4843 1.2549 -5.8745 -20.0506 1.7231 8.2638 23.5182 0.0000 0.0000 0.0000 14.6303 4.9854 1.5474 -0.0000 -0.0264 0.0724 -0.7823 -22.6696 -36.5044 -1.4294 -7.5599 21.3851 -0.0003 0.9783 -3.7236 -0.5726 1.3150 -2.9435 -0.5492 0.6586 -0.9183 -0.8727 -4.8451 -0.1158 4.2809 -6.6577 5.3739 1.3755 -3.2483 1.8927 0.0000 0.0000 0.0000 -81.8115 1.2990 43.9005 9.9754 -16.7011 -1.4679 -0.0000 0.0000 -11.2105 12.3388 -11.4613 -2.4889 -7.1250 0.0000 -0.0000 -10.3627 18.3623 6.6807 0.0000 0.0000 0.0000 85.3590 -9.9054 27.5456 -13.2645 21.6736 -2.5502 0.0000 0.0000 2.4381 -8.3917 -40.0417 5.4214 7.1250 -0.0000 -0.0000 36.7335 -66.8367 -20.4472
